{
	"asset":{
		"generator":"Khronos glTF Blender I/O v4.2.60",
		"version":"2.0"
	},
	"extensionsUsed":[
		"KHR_materials_clearcoat",
		"KHR_materials_transmission",
		"KHR_materials_emissive_strength",
		"KHR_materials_anisotropy",
		"KHR_materials_ior",
		"KHR_materials_sheen"
	],
	"scene":0,
	"scenes":[
		{
			"name":"Scene",
			"nodes":[
				8
			]
		}
	],
	"nodes":[
		{
			"mesh":0,
			"name":"Base"
		},
		{
			"mesh":1,
			"name":"Base_Bottom"
		},
		{
			"mesh":2,
			"name":"Belt"
		},
		{
			"mesh":3,
			"name":"Display"
		},
		{
			"mesh":4,
			"name":"Rim"
		},
		{
			"mesh":5,
			"name":"Sensor"
		},
		{
			"mesh":6,
			"name":"Sensorlight",
			"scale":[
				2.8757832050323486,
				2.8757834434509277,
				2.8757834434509277
			],
			"translation":[
				0,
				0.7828546166419983,
				2.0194798707962036e-05
			]
		},
		{
			"mesh":7,
			"name":"Strap"
		},
		{
			"children":[
				0,
				1,
				2,
				3,
				4,
				5,
				6,
				7
			],
			"name":"Watch",
			"rotation":[
				0.5960947275161743,
				0.12757235765457153,
				-0.1379001885652542,
				0.7806279063224792
			],
			"translation":[
				0.42052140831947327,
				5.996841907501221,
				0
			]
		}
	],
	"materials":[
		{
			"doubleSided":true,
			"name":"Base_Black",
			"pbrMetallicRoughness":{
				"baseColorFactor":[
					0,
					0,
					0,
					1
				],
				"roughnessFactor":0
			}
		},
		{
			"doubleSided":true,
			"extensions":{
				"KHR_materials_clearcoat":{
					"clearcoatFactor":0.25,
					"clearcoatRoughnessFactor":0.5
				},
				"KHR_materials_transmission":{
					"transmissionFactor":1
				}
			},
			"name":"TransparentGlass",
			"pbrMetallicRoughness":{
				"baseColorFactor":[
					0.800000011920929,
					0.800000011920929,
					0.800000011920929,
					1
				],
				"metallicFactor":0,
				"roughnessFactor":0
			}
		},
		{
			"doubleSided":true,
			"name":"Steel",
			"pbrMetallicRoughness":{
				"roughnessFactor":0.07339451462030411
			}
		},
		{
			"doubleSided":true,
			"name":"Display_Mat",
			"pbrMetallicRoughness":{
				"baseColorTexture":{
					"index":0
				},
				"metallicFactor":0,
				"roughnessFactor":0
			}
		},
		{
			"doubleSided":true,
			"name":"Display_Bezel",
			"pbrMetallicRoughness":{
				"baseColorFactor":[
					0,
					0,
					0,
					1
				],
				"metallicFactor":0,
				"roughnessFactor":0
			}
		},
		{
			"doubleSided":true,
			"name":"Black_Matte",
			"pbrMetallicRoughness":{
				"baseColorFactor":[
					0.005924710072577,
					0.005924710072577,
					0.005924710072577,
					1
				],
				"roughnessFactor":0.2889908254146576
			}
		},
		{
			"doubleSided":true,
			"name":"Grey",
			"pbrMetallicRoughness":{
				"baseColorFactor":[
					0.054968226701021194,
					0.054968226701021194,
					0.054968226701021194,
					1
				],
				"metallicFactor":0,
				"roughnessFactor":0.5
			}
		},
		{
			"doubleSided":true,
			"name":"LightGrey",
			"pbrMetallicRoughness":{
				"baseColorFactor":[
					0.8269311785697937,
					0.8843259811401367,
					0.9402695894241333,
					1
				],
				"metallicFactor":0,
				"roughnessFactor":0.342201828956604
			}
		},
		{
			"doubleSided":true,
			"extensions":{
				"KHR_materials_sheen":{
					"sheenColorFactor":[
						1.0,
						1.0,
						1.0
					],
					"sheenRoughnessFactor":0.5
				},
				"KHR_materials_anisotropy":{
					"anisotropyStrength":1
				}
			},
			"name":"LightArea",
			"pbrMetallicRoughness":{
				"roughnessFactor":0.10000000149011612
			}
		},
		{
			"doubleSided":true,
			"emissiveFactor":[
				0.008390812203288078,
				1,
				0
			],
			"extensions":{
				"KHR_materials_transmission":{
					"transmissionFactor":1
				},
				"KHR_materials_emissive_strength":{
					"emissiveStrength":20
				},
				"KHR_materials_ior":{
					"ior":1
				}
			},
			"name":"Sensor Light",
			"pbrMetallicRoughness":{
				"baseColorFactor":[
					0.800000011920929,
					0.800000011920929,
					0.800000011920929,
					1
				],
				"metallicFactor":0,
				"roughnessFactor":0
			}
		}
	],
	"meshes":[
		{
			"name":"Cylinder.005",
			"primitives":[
				{
					"attributes":{
						"POSITION":0,
						"NORMAL":1,
						"TEXCOORD_0":2
					},
					"indices":3,
					"material":0
				}
			]
		},
		{
			"name":"Cylinder.014",
			"primitives":[
				{
					"attributes":{
						"POSITION":4,
						"NORMAL":5,
						"TEXCOORD_0":6
					},
					"indices":7,
					"material":0
				},
				{
					"attributes":{
						"POSITION":8,
						"NORMAL":9,
						"TEXCOORD_0":10
					},
					"indices":11,
					"material":1
				}
			]
		},
		{
			"name":"Cylinder.012",
			"primitives":[
				{
					"attributes":{
						"POSITION":12,
						"NORMAL":13,
						"TEXCOORD_0":14
					},
					"indices":15,
					"material":2
				}
			]
		},
		{
			"name":"Cylinder.006",
			"primitives":[
				{
					"attributes":{
						"POSITION":16,
						"NORMAL":17,
						"TEXCOORD_0":18
					},
					"indices":19,
					"material":3
				},
				{
					"attributes":{
						"POSITION":20,
						"NORMAL":21,
						"TEXCOORD_0":22
					},
					"indices":23,
					"material":4
				}
			]
		},
		{
			"name":"Cylinder.007",
			"primitives":[
				{
					"attributes":{
						"POSITION":24,
						"NORMAL":25,
						"TEXCOORD_0":26
					},
					"indices":27,
					"material":5
				}
			]
		},
		{
			"name":"Cylinder.011",
			"primitives":[
				{
					"attributes":{
						"POSITION":28,
						"NORMAL":29,
						"TEXCOORD_0":30
					},
					"indices":31,
					"material":2
				},
				{
					"attributes":{
						"POSITION":32,
						"NORMAL":33,
						"TEXCOORD_0":34
					},
					"indices":35,
					"material":0
				},
				{
					"attributes":{
						"POSITION":36,
						"NORMAL":37,
						"TEXCOORD_0":38
					},
					"indices":39,
					"material":6
				},
				{
					"attributes":{
						"POSITION":40,
						"NORMAL":41,
						"TEXCOORD_0":42
					},
					"indices":43,
					"material":7
				},
				{
					"attributes":{
						"POSITION":44,
						"NORMAL":45,
						"TEXCOORD_0":46
					},
					"indices":47,
					"material":8
				}
			]
		},
		{
			"name":"Cylinder.015",
			"primitives":[
				{
					"attributes":{
						"POSITION":48,
						"NORMAL":49,
						"TEXCOORD_0":50
					},
					"indices":51,
					"material":9
				}
			]
		},
		{
			"name":"Cylinder.008",
			"primitives":[
				{
					"attributes":{
						"POSITION":52,
						"NORMAL":53,
						"TEXCOORD_0":54
					},
					"indices":55,
					"material":7
				}
			]
		}
	],
	"textures":[
		{
			"sampler":0,
			"source":0
		}
	],
	"images":[
		{
			"mimeType":"image/png",
			"name":"Screenshot_20231108_225606_sysui",
			"uri":"Screenshot_20231108_225606_sysui.png"
		}
	],
	"accessors":[
		{
			"bufferView":0,
			"componentType":5126,
			"count":98,
			"max":[
				2.2200000286102295,
				0.46044161915779114,
				2.2200000286102295
			],
			"min":[
				-2.2200000286102295,
				-0.3694887161254883,
				-2.2200000286102295
			],
			"type":"VEC3"
		},
		{
			"bufferView":1,
			"componentType":5126,
			"count":98,
			"type":"VEC3"
		},
		{
			"bufferView":2,
			"componentType":5126,
			"count":98,
			"type":"VEC2"
		},
		{
			"bufferView":3,
			"componentType":5123,
			"count":372,
			"type":"SCALAR"
		},
		{
			"bufferView":4,
			"componentType":5126,
			"count":128,
			"max":[
				2.102864980697632,
				-0.3345305621623993,
				2.102864980697632
			],
			"min":[
				-2.102864980697632,
				-0.49000003933906555,
				-2.102864980697632
			],
			"type":"VEC3"
		},
		{
			"bufferView":5,
			"componentType":5126,
			"count":128,
			"type":"VEC3"
		},
		{
			"bufferView":6,
			"componentType":5126,
			"count":128,
			"type":"VEC2"
		},
		{
			"bufferView":7,
			"componentType":5123,
			"count":576,
			"type":"SCALAR"
		},
		{
			"bufferView":8,
			"componentType":5126,
			"count":64,
			"max":[
				1.4748210906982422,
				-0.4503942131996155,
				1.4748213291168213
			],
			"min":[
				-1.4748210906982422,
				-0.49000003933906555,
				-1.4748210906982422
			],
			"type":"VEC3"
		},
		{
			"bufferView":9,
			"componentType":5126,
			"count":64,
			"type":"VEC3"
		},
		{
			"bufferView":10,
			"componentType":5126,
			"count":64,
			"type":"VEC2"
		},
		{
			"bufferView":11,
			"componentType":5123,
			"count":282,
			"type":"SCALAR"
		},
		{
			"bufferView":12,
			"componentType":5126,
			"count":154,
			"max":[
				1.607704997062683,
				-4.708069324493408,
				4.172128677368164
			],
			"min":[
				-1.607704997062683,
				-5.923075199127197,
				2.395956516265869
			],
			"type":"VEC3"
		},
		{
			"bufferView":13,
			"componentType":5126,
			"count":154,
			"type":"VEC3"
		},
		{
			"bufferView":14,
			"componentType":5126,
			"count":154,
			"type":"VEC2"
		},
		{
			"bufferView":15,
			"componentType":5123,
			"count":870,
			"type":"SCALAR"
		},
		{
			"bufferView":16,
			"componentType":5126,
			"count":32,
			"max":[
				1.777999997138977,
				0.48999983072280884,
				1.777999997138977
			],
			"min":[
				-1.777999997138977,
				0.48999983072280884,
				-1.777999997138977
			],
			"type":"VEC3"
		},
		{
			"bufferView":17,
			"componentType":5126,
			"count":32,
			"type":"VEC3"
		},
		{
			"bufferView":18,
			"componentType":5126,
			"count":32,
			"type":"VEC2"
		},
		{
			"bufferView":19,
			"componentType":5123,
			"count":90,
			"type":"SCALAR"
		},
		{
			"bufferView":20,
			"componentType":5126,
			"count":64,
			"max":[
				2.196535348892212,
				0.49000000953674316,
				2.196535348892212
			],
			"min":[
				-2.196535348892212,
				0.48999983072280884,
				-2.196535348892212
			],
			"type":"VEC3"
		},
		{
			"bufferView":21,
			"componentType":5126,
			"count":64,
			"type":"VEC3"
		},
		{
			"bufferView":22,
			"componentType":5126,
			"count":64,
			"type":"VEC2"
		},
		{
			"bufferView":23,
			"componentType":5123,
			"count":192,
			"type":"SCALAR"
		},
		{
			"bufferView":24,
			"componentType":5126,
			"count":60,
			"max":[
				2.2200000286102295,
				0.409959077835083,
				2.5891928672790527
			],
			"min":[
				-2.2200000286102295,
				-0.28815603256225586,
				-2.5891928672790527
			],
			"type":"VEC3"
		},
		{
			"bufferView":25,
			"componentType":5126,
			"count":60,
			"type":"VEC3"
		},
		{
			"bufferView":26,
			"componentType":5126,
			"count":60,
			"type":"VEC2"
		},
		{
			"bufferView":27,
			"componentType":5123,
			"count":168,
			"type":"SCALAR"
		},
		{
			"bufferView":28,
			"componentType":5126,
			"count":60,
			"max":[
				1.5397188663482666,
				-0.4002566635608673,
				1.5412673950195312
			],
			"min":[
				0,
				-0.43571627140045166,
				-1.5412671566009521
			],
			"type":"VEC3"
		},
		{
			"bufferView":29,
			"componentType":5126,
			"count":60,
			"type":"VEC3"
		},
		{
			"bufferView":30,
			"componentType":5126,
			"count":60,
			"type":"VEC2"
		},
		{
			"bufferView":31,
			"componentType":5123,
			"count":216,
			"type":"SCALAR"
		},
		{
			"bufferView":32,
			"componentType":5126,
			"count":216,
			"max":[
				1.5397188663482666,
				-0.4002566635608673,
				0.9129294157028198
			],
			"min":[
				0,
				-0.43571627140045166,
				-0.9129291772842407
			],
			"type":"VEC3"
		},
		{
			"bufferView":33,
			"componentType":5126,
			"count":216,
			"type":"VEC3"
		},
		{
			"bufferView":34,
			"componentType":5126,
			"count":216,
			"type":"VEC2"
		},
		{
			"bufferView":35,
			"componentType":5123,
			"count":696,
			"type":"SCALAR"
		},
		{
			"bufferView":36,
			"componentType":5126,
			"count":166,
			"max":[
				0.7359127402305603,
				-0.4227442145347595,
				0.7208515405654907
			],
			"min":[
				0,
				-0.4291730225086212,
				-0.7208515405654907
			],
			"type":"VEC3"
		},
		{
			"bufferView":37,
			"componentType":5126,
			"count":166,
			"type":"VEC3"
		},
		{
			"bufferView":38,
			"componentType":5126,
			"count":166,
			"type":"VEC2"
		},
		{
			"bufferView":39,
			"componentType":5123,
			"count":342,
			"type":"SCALAR"
		},
		{
			"bufferView":40,
			"componentType":5126,
			"count":72,
			"max":[
				0.7359127402305603,
				-0.4227442145347595,
				0.7208515405654907
			],
			"min":[
				0.07721833139657974,
				-0.4227442145347595,
				-0.7208515405654907
			],
			"type":"VEC3"
		},
		{
			"bufferView":41,
			"componentType":5126,
			"count":72,
			"type":"VEC3"
		},
		{
			"bufferView":42,
			"componentType":5126,
			"count":72,
			"type":"VEC2"
		},
		{
			"bufferView":43,
			"componentType":5123,
			"count":108,
			"type":"SCALAR"
		},
		{
			"bufferView":44,
			"componentType":5126,
			"count":97,
			"max":[
				0.33950722217559814,
				-0.40180036425590515,
				0.34009844064712524
			],
			"min":[
				0,
				-0.4135550856590271,
				-0.34009844064712524
			],
			"type":"VEC3"
		},
		{
			"bufferView":45,
			"componentType":5126,
			"count":97,
			"type":"VEC3"
		},
		{
			"bufferView":46,
			"componentType":5126,
			"count":97,
			"type":"VEC2"
		},
		{
			"bufferView":47,
			"componentType":5123,
			"count":378,
			"type":"SCALAR"
		},
		{
			"bufferView":48,
			"componentType":5126,
			"count":17,
			"max":[
				0.08624549955129623,
				-0.4172435700893402,
				0.08623979240655899
			],
			"min":[
				0,
				-0.4174542725086212,
				-0.08460048586130142
			],
			"type":"VEC3"
		},
		{
			"bufferView":49,
			"componentType":5126,
			"count":17,
			"type":"VEC3"
		},
		{
			"bufferView":50,
			"componentType":5126,
			"count":17,
			"type":"VEC2"
		},
		{
			"bufferView":51,
			"componentType":5123,
			"count":45,
			"type":"SCALAR"
		},
		{
			"bufferView":52,
			"componentType":5126,
			"count":931,
			"max":[
				1.2333577871322632,
				0.05565595626831055,
				4.060366153717041
			],
			"min":[
				-1.2333577871322632,
				-6.748169898986816,
				-4
			],
			"type":"VEC3"
		},
		{
			"bufferView":53,
			"componentType":5126,
			"count":931,
			"type":"VEC3"
		},
		{
			"bufferView":54,
			"componentType":5126,
			"count":931,
			"type":"VEC2"
		},
		{
			"bufferView":55,
			"componentType":5123,
			"count":5364,
			"type":"SCALAR"
		}
	],
	"bufferViews":[
		{
			"buffer":0,
			"byteLength":1176,
			"byteOffset":0,
			"target":34962
		},
		{
			"buffer":0,
			"byteLength":1176,
			"byteOffset":1176,
			"target":34962
		},
		{
			"buffer":0,
			"byteLength":784,
			"byteOffset":2352,
			"target":34962
		},
		{
			"buffer":0,
			"byteLength":744,
			"byteOffset":3136,
			"target":34963
		},
		{
			"buffer":0,
			"byteLength":1536,
			"byteOffset":3880,
			"target":34962
		},
		{
			"buffer":0,
			"byteLength":1536,
			"byteOffset":5416,
			"target":34962
		},
		{
			"buffer":0,
			"byteLength":1024,
			"byteOffset":6952,
			"target":34962
		},
		{
			"buffer":0,
			"byteLength":1152,
			"byteOffset":7976,
			"target":34963
		},
		{
			"buffer":0,
			"byteLength":768,
			"byteOffset":9128,
			"target":34962
		},
		{
			"buffer":0,
			"byteLength":768,
			"byteOffset":9896,
			"target":34962
		},
		{
			"buffer":0,
			"byteLength":512,
			"byteOffset":10664,
			"target":34962
		},
		{
			"buffer":0,
			"byteLength":564,
			"byteOffset":11176,
			"target":34963
		},
		{
			"buffer":0,
			"byteLength":1848,
			"byteOffset":11740,
			"target":34962
		},
		{
			"buffer":0,
			"byteLength":1848,
			"byteOffset":13588,
			"target":34962
		},
		{
			"buffer":0,
			"byteLength":1232,
			"byteOffset":15436,
			"target":34962
		},
		{
			"buffer":0,
			"byteLength":1740,
			"byteOffset":16668,
			"target":34963
		},
		{
			"buffer":0,
			"byteLength":384,
			"byteOffset":18408,
			"target":34962
		},
		{
			"buffer":0,
			"byteLength":384,
			"byteOffset":18792,
			"target":34962
		},
		{
			"buffer":0,
			"byteLength":256,
			"byteOffset":19176,
			"target":34962
		},
		{
			"buffer":0,
			"byteLength":180,
			"byteOffset":19432,
			"target":34963
		},
		{
			"buffer":0,
			"byteLength":768,
			"byteOffset":19612,
			"target":34962
		},
		{
			"buffer":0,
			"byteLength":768,
			"byteOffset":20380,
			"target":34962
		},
		{
			"buffer":0,
			"byteLength":512,
			"byteOffset":21148,
			"target":34962
		},
		{
			"buffer":0,
			"byteLength":384,
			"byteOffset":21660,
			"target":34963
		},
		{
			"buffer":0,
			"byteLength":720,
			"byteOffset":22044,
			"target":34962
		},
		{
			"buffer":0,
			"byteLength":720,
			"byteOffset":22764,
			"target":34962
		},
		{
			"buffer":0,
			"byteLength":480,
			"byteOffset":23484,
			"target":34962
		},
		{
			"buffer":0,
			"byteLength":336,
			"byteOffset":23964,
			"target":34963
		},
		{
			"buffer":0,
			"byteLength":720,
			"byteOffset":24300,
			"target":34962
		},
		{
			"buffer":0,
			"byteLength":720,
			"byteOffset":25020,
			"target":34962
		},
		{
			"buffer":0,
			"byteLength":480,
			"byteOffset":25740,
			"target":34962
		},
		{
			"buffer":0,
			"byteLength":432,
			"byteOffset":26220,
			"target":34963
		},
		{
			"buffer":0,
			"byteLength":2592,
			"byteOffset":26652,
			"target":34962
		},
		{
			"buffer":0,
			"byteLength":2592,
			"byteOffset":29244,
			"target":34962
		},
		{
			"buffer":0,
			"byteLength":1728,
			"byteOffset":31836,
			"target":34962
		},
		{
			"buffer":0,
			"byteLength":1392,
			"byteOffset":33564,
			"target":34963
		},
		{
			"buffer":0,
			"byteLength":1992,
			"byteOffset":34956,
			"target":34962
		},
		{
			"buffer":0,
			"byteLength":1992,
			"byteOffset":36948,
			"target":34962
		},
		{
			"buffer":0,
			"byteLength":1328,
			"byteOffset":38940,
			"target":34962
		},
		{
			"buffer":0,
			"byteLength":684,
			"byteOffset":40268,
			"target":34963
		},
		{
			"buffer":0,
			"byteLength":864,
			"byteOffset":40952,
			"target":34962
		},
		{
			"buffer":0,
			"byteLength":864,
			"byteOffset":41816,
			"target":34962
		},
		{
			"buffer":0,
			"byteLength":576,
			"byteOffset":42680,
			"target":34962
		},
		{
			"buffer":0,
			"byteLength":216,
			"byteOffset":43256,
			"target":34963
		},
		{
			"buffer":0,
			"byteLength":1164,
			"byteOffset":43472,
			"target":34962
		},
		{
			"buffer":0,
			"byteLength":1164,
			"byteOffset":44636,
			"target":34962
		},
		{
			"buffer":0,
			"byteLength":776,
			"byteOffset":45800,
			"target":34962
		},
		{
			"buffer":0,
			"byteLength":756,
			"byteOffset":46576,
			"target":34963
		},
		{
			"buffer":0,
			"byteLength":204,
			"byteOffset":47332,
			"target":34962
		},
		{
			"buffer":0,
			"byteLength":204,
			"byteOffset":47536,
			"target":34962
		},
		{
			"buffer":0,
			"byteLength":136,
			"byteOffset":47740,
			"target":34962
		},
		{
			"buffer":0,
			"byteLength":90,
			"byteOffset":47876,
			"target":34963
		},
		{
			"buffer":0,
			"byteLength":11172,
			"byteOffset":47968,
			"target":34962
		},
		{
			"buffer":0,
			"byteLength":11172,
			"byteOffset":59140,
			"target":34962
		},
		{
			"buffer":0,
			"byteLength":7448,
			"byteOffset":70312,
			"target":34962
		},
		{
			"buffer":0,
			"byteLength":10728,
			"byteOffset":77760,
			"target":34963
		}
	],
	"samplers":[
		{
			"magFilter":9729,
			"minFilter":9987
		}
	],
	"buffers":[
		{
			"byteLength":88488,
			"uri":"GalaxyWatch4.bin"
		}
	]
}
